<svg width="147" height="21" viewBox="0 0 147 21" fill="none" xmlns="http://www.w3.org/2000/svg">
<path d="M7.138 1.852C9.04467 1.852 10.7173 2.22467 12.156 2.97C13.612 3.71533 14.73 4.78133 15.51 6.168C16.3073 7.53733 16.706 9.132 16.706 10.952C16.706 12.772 16.3073 14.3667 15.51 15.736C14.73 17.088 13.612 18.1367 12.156 18.882C10.7173 19.6273 9.04467 20 7.138 20H0.794V1.852H7.138ZM7.008 16.906C8.91467 16.906 10.388 16.386 11.428 15.346C12.468 14.306 12.988 12.8413 12.988 10.952C12.988 9.06267 12.468 7.58933 11.428 6.532C10.388 5.45733 8.91467 4.92 7.008 4.92H4.434V16.906H7.008ZM18.7547 12.746C18.7547 11.29 19.0407 9.99867 19.6127 8.872C20.2021 7.74533 20.9907 6.87867 21.9787 6.272C22.9841 5.66533 24.1021 5.362 25.3327 5.362C26.4074 5.362 27.3434 5.57867 28.1407 6.012C28.9554 6.44533 29.6054 6.99133 30.0907 7.65V5.596H33.7567V20H30.0907V17.894C29.6227 18.57 28.9727 19.1333 28.1407 19.584C27.3261 20.0173 26.3814 20.234 25.3067 20.234C24.0934 20.234 22.9841 19.922 21.9787 19.298C20.9907 18.674 20.2021 17.7987 19.6127 16.672C19.0407 15.528 18.7547 14.2193 18.7547 12.746ZM30.0907 12.798C30.0907 11.914 29.9174 11.16 29.5707 10.536C29.2241 9.89467 28.7561 9.40933 28.1667 9.08C27.5774 8.73333 26.9447 8.56 26.2687 8.56C25.5927 8.56 24.9687 8.72467 24.3967 9.054C23.8247 9.38333 23.3567 9.86867 22.9927 10.51C22.6461 11.134 22.4727 11.8793 22.4727 12.746C22.4727 13.6127 22.6461 14.3753 22.9927 15.034C23.3567 15.6753 23.8247 16.1693 24.3967 16.516C24.9861 16.8627 25.6101 17.036 26.2687 17.036C26.9447 17.036 27.5774 16.8713 28.1667 16.542C28.7561 16.1953 29.2241 15.71 29.5707 15.086C29.9174 14.4447 30.0907 13.682 30.0907 12.798ZM43.0838 20.234C41.9051 20.234 40.8478 20.026 39.9118 19.61C38.9758 19.1767 38.2305 18.596 37.6758 17.868C37.1385 17.14 36.8438 16.334 36.7918 15.45H40.4578C40.5271 16.0047 40.7958 16.464 41.2638 16.828C41.7491 17.192 42.3471 17.374 43.0578 17.374C43.7511 17.374 44.2885 17.2353 44.6698 16.958C45.0685 16.6807 45.2678 16.3253 45.2678 15.892C45.2678 15.424 45.0251 15.0773 44.5398 14.852C44.0718 14.6093 43.3178 14.3493 42.2778 14.072C41.2031 13.812 40.3191 13.5433 39.6258 13.266C38.9498 12.9887 38.3605 12.564 37.8578 11.992C37.3725 11.42 37.1298 10.6487 37.1298 9.678C37.1298 8.88067 37.3551 8.15267 37.8058 7.494C38.2738 6.83533 38.9325 6.31533 39.7818 5.934C40.6485 5.55267 41.6625 5.362 42.8238 5.362C44.5398 5.362 45.9091 5.79533 46.9318 6.662C47.9545 7.51133 48.5178 8.664 48.6218 10.12H45.1378C45.0858 9.548 44.8431 9.09733 44.4098 8.768C43.9938 8.42133 43.4305 8.248 42.7198 8.248C42.0611 8.248 41.5498 8.36933 41.1858 8.612C40.8391 8.85467 40.6658 9.19267 40.6658 9.626C40.6658 10.1113 40.9085 10.484 41.3938 10.744C41.8791 10.9867 42.6331 11.238 43.6558 11.498C44.6958 11.758 45.5538 12.0267 46.2298 12.304C46.9058 12.5813 47.4865 13.0147 47.9718 13.604C48.4745 14.176 48.7345 14.9387 48.7518 15.892C48.7518 16.724 48.5178 17.4693 48.0498 18.128C47.5991 18.7867 46.9405 19.3067 46.0738 19.688C45.2245 20.052 44.2278 20.234 43.0838 20.234ZM60.1118 5.388C61.2038 5.388 62.1744 5.63067 63.0238 6.116C63.8731 6.584 64.5318 7.286 64.9998 8.222C65.4851 9.14067 65.7278 10.25 65.7278 11.55V20H62.0878V12.044C62.0878 10.9 61.8018 10.0247 61.2298 9.418C60.6578 8.794 59.8778 8.482 58.8898 8.482C57.8844 8.482 57.0871 8.794 56.4978 9.418C55.9258 10.0247 55.6398 10.9 55.6398 12.044V20H51.9998V0.76H55.6398V7.39C56.1078 6.766 56.7318 6.28067 57.5118 5.934C58.2918 5.57 59.1584 5.388 60.1118 5.388ZM73.0892 7.702C73.5572 7.00867 74.1986 6.44533 75.0132 6.012C75.8452 5.57867 76.7899 5.362 77.8472 5.362C79.0779 5.362 80.1872 5.66533 81.1752 6.272C82.1806 6.87867 82.9692 7.74533 83.5412 8.872C84.1306 9.98133 84.4252 11.2727 84.4252 12.746C84.4252 14.2193 84.1306 15.528 83.5412 16.672C82.9692 17.7987 82.1806 18.674 81.1752 19.298C80.1872 19.922 79.0779 20.234 77.8472 20.234C76.7726 20.234 75.8279 20.026 75.0132 19.61C74.2159 19.1767 73.5746 18.622 73.0892 17.946V20H69.4492V0.76H73.0892V7.702ZM80.7072 12.746C80.7072 11.8793 80.5252 11.134 80.1612 10.51C79.8146 9.86867 79.3466 9.38333 78.7572 9.054C78.1852 8.72467 77.5612 8.56 76.8852 8.56C76.2266 8.56 75.6026 8.73333 75.0132 9.08C74.4412 9.40933 73.9732 9.89467 73.6092 10.536C73.2626 11.1773 73.0892 11.9313 73.0892 12.798C73.0892 13.6647 73.2626 14.4187 73.6092 15.06C73.9732 15.7013 74.4412 16.1953 75.0132 16.542C75.6026 16.8713 76.2266 17.036 76.8852 17.036C77.5612 17.036 78.1852 16.8627 78.7572 16.516C79.3466 16.1693 79.8146 15.6753 80.1612 15.034C80.5252 14.3927 80.7072 13.63 80.7072 12.746ZM93.7263 20.234C92.3397 20.234 91.0917 19.9307 89.9823 19.324C88.873 18.7 87.9977 17.8247 87.3563 16.698C86.7323 15.5713 86.4203 14.2713 86.4203 12.798C86.4203 11.3247 86.741 10.0247 87.3823 8.898C88.041 7.77133 88.9337 6.90467 90.0603 6.298C91.187 5.674 92.4437 5.362 93.8303 5.362C95.217 5.362 96.4737 5.674 97.6003 6.298C98.727 6.90467 99.611 7.77133 100.252 8.898C100.911 10.0247 101.24 11.3247 101.24 12.798C101.24 14.2713 100.902 15.5713 100.226 16.698C99.5677 17.8247 98.6663 18.7 97.5223 19.324C96.3957 19.9307 95.1303 20.234 93.7263 20.234ZM93.7263 17.062C94.385 17.062 95.0003 16.906 95.5723 16.594C96.1617 16.2647 96.6297 15.7793 96.9763 15.138C97.323 14.4967 97.4963 13.7167 97.4963 12.798C97.4963 11.4287 97.1323 10.38 96.4043 9.652C95.6937 8.90667 94.8183 8.534 93.7783 8.534C92.7383 8.534 91.863 8.90667 91.1523 9.652C90.459 10.38 90.1123 11.4287 90.1123 12.798C90.1123 14.1673 90.4503 15.2247 91.1263 15.97C91.8197 16.698 92.6863 17.062 93.7263 17.062ZM103.234 12.746C103.234 11.29 103.52 9.99867 104.092 8.872C104.682 7.74533 105.47 6.87867 106.458 6.272C107.464 5.66533 108.582 5.362 109.812 5.362C110.887 5.362 111.823 5.57867 112.62 6.012C113.435 6.44533 114.085 6.99133 114.57 7.65V5.596H118.236V20H114.57V17.894C114.102 18.57 113.452 19.1333 112.62 19.584C111.806 20.0173 110.861 20.234 109.786 20.234C108.573 20.234 107.464 19.922 106.458 19.298C105.47 18.674 104.682 17.7987 104.092 16.672C103.52 15.528 103.234 14.2193 103.234 12.746ZM114.57 12.798C114.57 11.914 114.397 11.16 114.05 10.536C113.704 9.89467 113.236 9.40933 112.646 9.08C112.057 8.73333 111.424 8.56 110.748 8.56C110.072 8.56 109.448 8.72467 108.876 9.054C108.304 9.38333 107.836 9.86867 107.472 10.51C107.126 11.134 106.952 11.8793 106.952 12.746C106.952 13.6127 107.126 14.3753 107.472 15.034C107.836 15.6753 108.304 16.1693 108.876 16.516C109.466 16.8627 110.09 17.036 110.748 17.036C111.424 17.036 112.057 16.8713 112.646 16.542C113.236 16.1953 113.704 15.71 114.05 15.086C114.397 14.4447 114.57 13.682 114.57 12.798ZM125.691 7.832C126.16 7.06933 126.766 6.47133 127.512 6.038C128.274 5.60467 129.141 5.388 130.111 5.388V9.21H129.149C128.006 9.21 127.139 9.47867 126.55 10.016C125.977 10.5533 125.691 11.4893 125.691 12.824V20H122.051V5.596H125.691V7.832ZM131.887 12.746C131.887 11.29 132.173 9.99867 132.745 8.872C133.335 7.74533 134.132 6.87867 135.137 6.272C136.143 5.66533 137.261 5.362 138.491 5.362C139.427 5.362 140.32 5.57 141.169 5.986C142.019 6.38467 142.695 6.922 143.197 7.598V0.76H146.889V20H143.197V17.868C142.747 18.5787 142.114 19.1507 141.299 19.584C140.485 20.0173 139.54 20.234 138.465 20.234C137.252 20.234 136.143 19.922 135.137 19.298C134.132 18.674 133.335 17.7987 132.745 16.672C132.173 15.528 131.887 14.2193 131.887 12.746ZM143.223 12.798C143.223 11.914 143.05 11.16 142.703 10.536C142.357 9.89467 141.889 9.40933 141.299 9.08C140.71 8.73333 140.077 8.56 139.401 8.56C138.725 8.56 138.101 8.72467 137.529 9.054C136.957 9.38333 136.489 9.86867 136.125 10.51C135.779 11.134 135.605 11.8793 135.605 12.746C135.605 13.6127 135.779 14.3753 136.125 15.034C136.489 15.6753 136.957 16.1693 137.529 16.516C138.119 16.8627 138.743 17.036 139.401 17.036C140.077 17.036 140.71 16.8713 141.299 16.542C141.889 16.1953 142.357 15.71 142.703 15.086C143.05 14.4447 143.223 13.682 143.223 12.798Z" fill="black"/>
</svg>
